<svg width="63" height="52" viewBox="0 0 63 52" fill="none" xmlns="http://www.w3.org/2000/svg">
<path d="M43.5 10.5228C43.5 18.1917 36.8599 23.6256 31.9992 23.9814C31.7238 24.0016 31.5 23.7761 31.5 23.5V21.5397C31.5 21.2656 31.2787 21.0435 31.0049 21.0309C24.6682 20.7391 19.5 16.146 19.5 10.5228C19.5 4.71123 24.8726 0 31.5 0C38.1274 0 43.5 4.71123 43.5 10.5228Z" fill="#858589"/>
<path d="M26.5 8.41821L36.5 8.41821" stroke="white" stroke-width="2" stroke-linecap="round"/>
<path d="M26.5 12.4182H32.5" stroke="white" stroke-width="2" stroke-linecap="round"/>
<path d="M20.45 39.1641H18.8094C18.7497 38.8426 18.642 38.5575 18.4862 38.3089C18.3338 38.0604 18.1432 37.8516 17.9145 37.6825C17.6858 37.5102 17.4289 37.3809 17.1439 37.2947C16.8589 37.2053 16.5573 37.1605 16.2391 37.1605C15.6624 37.1605 15.147 37.3047 14.6929 37.593C14.2422 37.8814 13.8859 38.3056 13.624 38.8658C13.3655 39.4226 13.2362 40.1037 13.2362 40.9091C13.2362 41.7244 13.3655 42.4105 13.624 42.9673C13.8859 43.5241 14.2422 43.9451 14.6929 44.2301C15.147 44.5152 15.6607 44.6577 16.2341 44.6577C16.549 44.6577 16.8473 44.6162 17.129 44.5334C17.414 44.4472 17.6709 44.3213 17.8996 44.1555C18.1283 43.9865 18.3205 43.7794 18.4763 43.5341C18.6354 43.2888 18.7464 43.0071 18.8094 42.6889L20.45 42.6939C20.3738 43.1911 20.218 43.6501 19.9827 44.071C19.7474 44.4886 19.4441 44.8532 19.0729 45.1648C18.705 45.4763 18.2807 45.7166 17.8002 45.8857C17.3196 46.0547 16.7909 46.1392 16.2142 46.1392C15.3293 46.1392 14.5405 45.9304 13.8477 45.5128C13.155 45.0952 12.6098 44.4953 12.2121 43.7131C11.8144 42.9309 11.6155 41.9962 11.6155 40.9091C11.6155 39.8187 11.8144 38.884 12.2121 38.1051C12.6131 37.3229 13.16 36.723 13.8527 36.3054C14.5487 35.8878 15.3359 35.679 16.2142 35.679C16.7644 35.679 17.2765 35.7569 17.7504 35.9126C18.2244 36.0684 18.6486 36.2971 19.0232 36.5987C19.401 36.897 19.7126 37.2616 19.9578 37.6925C20.2064 38.1233 20.3705 38.6139 20.45 39.1641ZM22.1453 46V38.3636H25.3271C26.2021 38.3636 26.8949 38.5459 27.4053 38.9105C27.9157 39.2751 28.1709 39.7739 28.1709 40.407C28.1709 40.8478 28.0251 41.2008 27.7334 41.4659C27.445 41.7277 27.0606 41.9051 26.58 41.9979C26.9379 42.0343 27.2628 42.1354 27.5544 42.3011C27.8461 42.4669 28.0781 42.6873 28.2504 42.9624C28.4228 43.2375 28.509 43.5623 28.509 43.9368C28.509 44.3478 28.4029 44.7074 28.1908 45.0156C27.9787 45.3239 27.6704 45.5658 27.2661 45.7415C26.865 45.9138 26.3811 46 25.8144 46H22.1453ZM23.6318 44.7024H25.8144C26.169 44.7024 26.4474 44.6179 26.6496 44.4489C26.8551 44.2798 26.9578 44.0478 26.9578 43.7528C26.9578 43.4115 26.8551 43.143 26.6496 42.9474C26.4474 42.7519 26.169 42.6541 25.8144 42.6541H23.6318V44.7024ZM23.6318 41.5405H25.347C25.6155 41.5405 25.8459 41.5024 26.0381 41.4261C26.2336 41.3499 26.3828 41.2405 26.4855 41.098C26.5883 40.9522 26.6396 40.7815 26.6396 40.5859C26.6396 40.3009 26.522 40.0788 26.2867 39.9197C26.0547 39.7573 25.7348 39.6761 25.3271 39.6761H23.6318V41.5405ZM34.6327 46V39.6911H32.8628C32.4353 39.6911 32.1022 39.7905 31.8635 39.9893C31.6282 40.1882 31.5122 40.4451 31.5155 40.7599C31.5122 41.0748 31.6199 41.3284 31.8387 41.5206C32.0608 41.7128 32.3723 41.8089 32.7733 41.8089H35.105V43.0469H32.7733C32.1966 43.0469 31.6978 42.9524 31.2769 42.7635C30.8593 42.5746 30.5378 42.3078 30.3124 41.9631C30.087 41.6151 29.9743 41.2057 29.9743 40.7351C29.9743 40.2512 30.0903 39.8319 30.3224 39.4773C30.5544 39.1226 30.8858 38.8492 31.3167 38.657C31.7509 38.4614 32.2662 38.3636 32.8628 38.3636H36.1192V46H34.6327ZM29.6462 46L31.789 42.1222H33.3898L31.2421 46H29.6462ZM37.6082 43.9567H39.2041C39.224 44.2616 39.3615 44.4969 39.6167 44.6626C39.872 44.825 40.205 44.9062 40.616 44.9062C41.0303 44.9062 41.3833 44.8168 41.675 44.6378C41.9666 44.4588 42.1125 44.1804 42.1125 43.8026C42.1125 43.5805 42.0561 43.3849 41.9434 43.2159C41.8341 43.0469 41.6783 42.916 41.4761 42.8232C41.2773 42.7304 41.0419 42.6839 40.7702 42.6839H39.5471V41.4858H40.7702C41.1745 41.4858 41.4778 41.393 41.68 41.2074C41.8854 41.0185 41.9882 40.7848 41.9882 40.5064C41.9882 40.2015 41.8805 39.9562 41.665 39.7706C41.4496 39.5817 41.148 39.4872 40.7602 39.4872C40.3691 39.4872 40.0443 39.575 39.7858 39.7507C39.5273 39.9264 39.3914 40.1518 39.3781 40.4268H37.7971C37.8071 39.996 37.938 39.6198 38.1899 39.2983C38.4418 38.9735 38.7832 38.7199 39.214 38.5376C39.6449 38.3554 40.1354 38.2642 40.6856 38.2642C41.259 38.2642 41.7562 38.3554 42.1771 38.5376C42.598 38.7199 42.9229 38.9718 43.1515 39.2933C43.3802 39.6115 43.4946 39.9811 43.4946 40.402C43.4946 40.8229 43.3686 41.1676 43.1167 41.4361C42.8648 41.7045 42.5318 41.8951 42.1175 42.0078V42.0874C42.4157 42.1072 42.6809 42.1967 42.9129 42.3558C43.1449 42.5116 43.3272 42.7204 43.4598 42.9822C43.5957 43.2441 43.6636 43.5424 43.6636 43.8771C43.6636 44.3445 43.5327 44.7488 43.2709 45.0902C43.009 45.4316 42.6494 45.6951 42.192 45.8807C41.738 46.063 41.2176 46.1541 40.6309 46.1541C40.0609 46.1541 39.5505 46.0663 39.0997 45.8906C38.6489 45.7116 38.291 45.4581 38.0258 45.13C37.7607 44.8018 37.6215 44.4107 37.6082 43.9567ZM46.3172 40.9489H48.5494C49.4941 40.9489 50.2232 41.1825 50.7369 41.6499C51.2507 42.1139 51.5075 42.7171 51.5075 43.4595C51.5075 43.9467 51.3915 44.3826 51.1595 44.767C50.9308 45.1482 50.5961 45.4498 50.1553 45.6719C49.7145 45.8906 49.1792 46 48.5494 46H45.1688V38.3636H46.71V44.6577H48.5494C48.9637 44.6577 49.3051 44.55 49.5736 44.3345C49.8421 44.1191 49.9763 43.8407 49.9763 43.4993C49.9763 43.1446 49.8421 42.8546 49.5736 42.6293C49.3051 42.4039 48.9637 42.2912 48.5494 42.2912H46.3172V40.9489Z" fill="#858589"/>
</svg>
