<svg width="63" height="52" viewBox="0 0 63 52" fill="none" xmlns="http://www.w3.org/2000/svg">
<path d="M18.9824 7.57515L30.9865 0.313233C31.3048 0.120668 31.7037 0.120726 32.0219 0.313382L44.0179 7.57511C44.3172 7.75629 44.5 8.08072 44.5 8.43058V22.9239C44.5 23.4762 44.0523 23.9239 43.5 23.9239H35.5C34.9477 23.9239 34.5 23.4762 34.5 22.9239V16.4469C34.5 15.8947 34.0523 15.4469 33.5 15.4469H31.5042H29.5C28.9477 15.4469 28.5 15.8947 28.5 16.4469V22.9315C28.5 23.4808 28.0569 23.9273 27.5076 23.9315L19.5076 23.9923C18.9524 23.9966 18.5 23.5476 18.5 22.9924V8.43077C18.5 8.0808 18.683 7.7563 18.9824 7.57515Z" fill="#EF3125"/>
<path d="M9.02344 35.8182V37.2053H4.24574V46H2.61506V35.8182H9.02344ZM10.0227 46L10.0178 44.6527H10.2862C10.495 44.6527 10.6707 44.608 10.8132 44.5185C10.9557 44.429 11.0717 44.2765 11.1612 44.0611C11.254 43.8423 11.3253 43.544 11.375 43.1662C11.4247 42.7884 11.4595 42.3144 11.4794 41.7443L11.6136 38.3636H17.0178V46H15.4766V39.706H13.0703L12.951 42.2614C12.9212 42.8911 12.8549 43.4413 12.7521 43.9119C12.6527 44.3826 12.5069 44.772 12.3146 45.0803C12.1257 45.3885 11.8838 45.6188 11.5888 45.7713C11.2938 45.9238 10.9392 46 10.5249 46H10.0227ZM21.1703 46.1641C20.6864 46.1641 20.2489 46.0762 19.8578 45.9006C19.47 45.7216 19.1618 45.4598 18.9331 45.1151C18.7077 44.7704 18.595 44.3478 18.595 43.8473C18.595 43.4164 18.6779 43.0618 18.8436 42.7834C19.0093 42.5017 19.2314 42.2796 19.5098 42.1172C19.7882 41.9515 20.1014 41.8272 20.4494 41.7443C20.7974 41.6581 21.1537 41.5952 21.5183 41.5554C21.9724 41.5024 22.3403 41.4576 22.622 41.4212C22.9037 41.3847 23.1092 41.3267 23.2385 41.2472C23.371 41.1676 23.4373 41.04 23.4373 40.8643V40.8295C23.4373 40.4152 23.318 40.0937 23.0794 39.8651C22.8407 39.6364 22.4911 39.522 22.0304 39.522C21.5498 39.522 21.1703 39.6281 20.8919 39.8402C20.6135 40.049 20.4212 40.2876 20.3152 40.5561L18.8336 40.2628C18.9894 39.7988 19.2247 39.4193 19.5396 39.1243C19.8545 38.8293 20.224 38.6122 20.6483 38.473C21.0758 38.3338 21.5299 38.2642 22.0105 38.2642C22.3353 38.2642 22.6717 38.3023 23.0197 38.3786C23.371 38.4548 23.6975 38.589 23.9991 38.7812C24.3007 38.9702 24.546 39.2386 24.7349 39.5866C24.9238 39.9313 25.0183 40.3755 25.0183 40.919V46H23.4821V44.956H23.4224C23.323 45.1515 23.1755 45.3421 22.9799 45.5277C22.7877 45.7133 22.5408 45.8658 22.2392 45.9851C21.9409 46.1044 21.5846 46.1641 21.1703 46.1641ZM21.5332 44.9361C21.9309 44.9361 22.2723 44.8582 22.5574 44.7024C22.8424 44.5433 23.0611 44.3362 23.2136 44.081C23.3661 43.8224 23.4423 43.5457 23.4423 43.2507V42.2912C23.3859 42.3442 23.2849 42.3923 23.139 42.4354C22.9932 42.4751 22.8275 42.5116 22.6419 42.5447C22.4596 42.5746 22.2789 42.6027 22.1 42.6293C21.9243 42.6525 21.7752 42.6723 21.6525 42.6889C21.3741 42.7254 21.1189 42.7867 20.8869 42.8729C20.6582 42.9557 20.4759 43.0767 20.34 43.2358C20.2041 43.3916 20.1362 43.5971 20.1362 43.8523C20.1362 44.2069 20.2671 44.477 20.5289 44.6626C20.7941 44.8449 21.1288 44.9361 21.5332 44.9361ZM26.951 46V38.3636H30.1328C31.0078 38.3636 31.7005 38.5459 32.2109 38.9105C32.7214 39.2751 32.9766 39.7739 32.9766 40.407C32.9766 40.8478 32.8307 41.2008 32.5391 41.4659C32.2507 41.7277 31.8662 41.9051 31.3857 41.9979C31.7436 42.0343 32.0684 42.1354 32.3601 42.3011C32.6518 42.4669 32.8838 42.6873 33.0561 42.9624C33.2285 43.2375 33.3146 43.5623 33.3146 43.9368C33.3146 44.3478 33.2086 44.7074 32.9964 45.0156C32.7843 45.3239 32.4761 45.5658 32.0717 45.7415C31.6707 45.9138 31.1868 46 30.62 46H26.951ZM28.4375 44.7024H30.62C30.9747 44.7024 31.2531 44.6179 31.4553 44.4489C31.6607 44.2798 31.7635 44.0478 31.7635 43.7528C31.7635 43.4115 31.6607 43.143 31.4553 42.9474C31.2531 42.7519 30.9747 42.6541 30.62 42.6541H28.4375V44.7024ZM28.4375 41.5405H30.1527C30.4212 41.5405 30.6515 41.5024 30.8438 41.4261C31.0393 41.3499 31.1884 41.2405 31.2912 41.098C31.3939 40.9522 31.4453 40.7815 31.4453 40.5859C31.4453 40.3009 31.3277 40.0788 31.0923 39.9197C30.8603 39.7573 30.5405 39.6761 30.1328 39.6761H28.4375V41.5405ZM40.0946 41.5107V42.853H35.9782V41.5107H40.0946ZM36.4355 38.3636V46H34.8944V38.3636H36.4355ZM41.1735 38.3636V46H39.6422V38.3636H41.1735ZM44.2459 40.9489H46.4782C47.4228 40.9489 48.1519 41.1825 48.6657 41.6499C49.1794 42.1139 49.4363 42.7171 49.4363 43.4595C49.4363 43.9467 49.3203 44.3826 49.0882 44.767C48.8596 45.1482 48.5248 45.4498 48.084 45.6719C47.6432 45.8906 47.1079 46 46.4782 46H43.0975V38.3636H44.6387V44.6577H46.4782C46.8925 44.6577 47.2338 44.55 47.5023 44.3345C47.7708 44.1191 47.905 43.8407 47.905 43.4993C47.905 43.1446 47.7708 42.8546 47.5023 42.6293C47.2338 42.4039 46.8925 42.2912 46.4782 42.2912H44.2459V40.9489ZM50.4803 46V38.3636H52.0613V46H50.4803ZM55.5488 43.8075L58.8251 38.3636H60.4956V46H58.9593V40.5511L55.698 46H54.0076V38.3636H55.5488V43.8075ZM58.2285 35.7685H59.4913C59.488 36.3319 59.2858 36.791 58.8848 37.1456C58.4837 37.4969 57.9385 37.6726 57.2491 37.6726C56.5697 37.6726 56.0294 37.4969 55.6284 37.1456C55.2273 36.791 55.0268 36.3319 55.0268 35.7685H56.2797C56.2797 36.0137 56.3526 36.2308 56.4984 36.4197C56.6442 36.6087 56.8945 36.7031 57.2491 36.7031C57.6004 36.7031 57.8507 36.6087 57.9998 36.4197C58.1523 36.2308 58.2285 36.0137 58.2285 35.7685Z" fill="#EF3125"/>
</svg>
