<svg width="26" height="24" viewBox="0 0 26 24" fill="none" xmlns="http://www.w3.org/2000/svg">
<path d="M0.48239 7.40633L12.4865 0.144409C12.8048 -0.0481552 13.2037 -0.0480975 13.5219 0.144559L25.5179 7.40629C25.8172 7.58747 26 7.91189 26 8.26176V22.7551C26 23.3074 25.5523 23.7551 25 23.7551H17C16.4477 23.7551 16 23.3074 16 22.7551V16.2781C16 15.7258 15.5523 15.2781 15 15.2781H13.0042H11C10.4477 15.2781 10 15.7258 10 16.2781V22.7627C10 23.312 9.55691 23.7585 9.00761 23.7626L1.00761 23.8235C0.452366 23.8277 0 23.3788 0 22.8235V8.26195C0 7.91198 0.182952 7.58748 0.48239 7.40633Z" fill="#EF3125"/>
</svg>
