<svg width="24" height="24" viewBox="0 0 24 24" fill="none" xmlns="http://www.w3.org/2000/svg">
<rect width="24" height="24" rx="4" fill="#858589"/>
<path d="M13.0371 13.6818H6.38938V12.2756H13.0371C13.6507 12.2756 14.1578 12.169 14.5584 11.956C14.959 11.7386 15.2573 11.4446 15.4533 11.0739C15.6493 10.6989 15.7473 10.2727 15.7473 9.79545C15.7473 9.31818 15.6493 8.89418 15.4533 8.52344C15.2573 8.14844 14.959 7.8544 14.5584 7.64134C14.1578 7.42401 13.6507 7.31534 13.0371 7.31534H10.0456V19H8.4604V5.90909H13.0371C14.0087 5.90909 14.8098 6.08594 15.4405 6.43963C16.0712 6.79332 16.54 7.2642 16.8468 7.85227C17.1536 8.44034 17.307 9.08807 17.307 9.79545C17.307 10.5028 17.1536 11.1506 16.8468 11.7386C16.54 12.3267 16.0712 12.7976 15.4405 13.1513C14.8098 13.505 14.0087 13.6818 13.0371 13.6818ZM12.9348 14.9091V16.3153H6.38938V14.9091H12.9348Z" fill="#F4F5F7"/>
</svg>
