<svg width="63" height="52" viewBox="0 0 63 52" fill="none" xmlns="http://www.w3.org/2000/svg">
<rect x="19.5" width="24" height="24" rx="4" fill="#858589"/>
<path d="M32.5371 13.6818H25.8894V12.2756H32.5371C33.1507 12.2756 33.6578 12.169 34.0584 11.956C34.459 11.7386 34.7573 11.4446 34.9533 11.0739C35.1493 10.6989 35.2473 10.2727 35.2473 9.79545C35.2473 9.31818 35.1493 8.89418 34.9533 8.52344C34.7573 8.14844 34.459 7.8544 34.0584 7.64134C33.6578 7.42401 33.1507 7.31534 32.5371 7.31534H29.5456V19H27.9604V5.90909H32.5371C33.5087 5.90909 34.3098 6.08594 34.9405 6.43963C35.5712 6.79332 36.04 7.2642 36.3468 7.85227C36.6536 8.44034 36.807 9.08807 36.807 9.79545C36.807 10.5028 36.6536 11.1506 36.3468 11.7386C36.04 12.3267 35.5712 12.7976 34.9405 13.1513C34.3098 13.505 33.5087 13.6818 32.5371 13.6818ZM32.4348 14.9091V16.3153H25.8894V14.9091H32.4348Z" fill="#F4F5F7"/>
<path d="M9.70827 35.8182V46H8.08754V37.1953H3.39933V46H1.77859V35.8182H9.70827ZM11.3216 46L11.3166 44.6527H11.585C11.7939 44.6527 11.9695 44.608 12.112 44.5185C12.2546 44.429 12.3706 44.2765 12.46 44.0611C12.5529 43.8423 12.6241 43.544 12.6738 43.1662C12.7235 42.7884 12.7583 42.3144 12.7782 41.7443L12.9125 38.3636H18.3166V46H16.7754V39.706H14.3691L14.2498 42.2614C14.22 42.8911 14.1537 43.4413 14.051 43.9119C13.9515 44.3826 13.8057 44.772 13.6135 45.0803C13.4245 45.3885 13.1826 45.6188 12.8876 45.7713C12.5926 45.9238 12.238 46 11.8237 46H11.3216ZM22.4691 46.1641C21.9852 46.1641 21.5477 46.0762 21.1566 45.9006C20.7688 45.7216 20.4606 45.4598 20.2319 45.1151C20.0065 44.7704 19.8938 44.3478 19.8938 43.8473C19.8938 43.4164 19.9767 43.0618 20.1424 42.7834C20.3081 42.5017 20.5302 42.2796 20.8086 42.1172C21.087 41.9515 21.4002 41.8272 21.7482 41.7443C22.0962 41.6581 22.4525 41.5952 22.8171 41.5554C23.2712 41.5024 23.6391 41.4576 23.9208 41.4212C24.2025 41.3847 24.408 41.3267 24.5373 41.2472C24.6699 41.1676 24.7362 41.04 24.7362 40.8643V40.8295C24.7362 40.4152 24.6168 40.0937 24.3782 39.8651C24.1396 39.6364 23.7899 39.522 23.3292 39.522C22.8486 39.522 22.4691 39.6281 22.1907 39.8402C21.9123 40.049 21.7201 40.2876 21.614 40.5561L20.1325 40.2628C20.2882 39.7988 20.5236 39.4193 20.8384 39.1243C21.1533 38.8293 21.5228 38.6122 21.9471 38.473C22.3746 38.3338 22.8287 38.2642 23.3093 38.2642C23.6341 38.2642 23.9705 38.3023 24.3185 38.3786C24.6699 38.4548 24.9963 38.589 25.2979 38.7812C25.5996 38.9702 25.8448 39.2386 26.0337 39.5866C26.2227 39.9313 26.3171 40.3755 26.3171 40.919V46H24.7809V44.956H24.7212C24.6218 45.1515 24.4743 45.3421 24.2788 45.5277C24.0865 45.7133 23.8396 45.8658 23.538 45.9851C23.2397 46.1044 22.8834 46.1641 22.4691 46.1641ZM22.832 44.9361C23.2298 44.9361 23.5711 44.8582 23.8562 44.7024C24.1412 44.5433 24.36 44.3362 24.5124 44.081C24.6649 43.8224 24.7411 43.5457 24.7411 43.2507V42.2912C24.6848 42.3442 24.5837 42.3923 24.4379 42.4354C24.292 42.4751 24.1263 42.5116 23.9407 42.5447C23.7584 42.5746 23.5778 42.6027 23.3988 42.6293C23.2231 42.6525 23.074 42.6723 22.9513 42.6889C22.6729 42.7254 22.4177 42.7867 22.1857 42.8729C21.957 42.9557 21.7747 43.0767 21.6388 43.2358C21.503 43.3916 21.435 43.5971 21.435 43.8523C21.435 44.2069 21.5659 44.477 21.8278 44.6626C22.0929 44.8449 22.4277 44.9361 22.832 44.9361ZM27.335 39.706V38.3636H33.8528V39.706H31.367V46H29.8258V39.706H27.335ZM38.3521 46.1541C37.5964 46.1541 36.9451 45.9934 36.3983 45.6719C35.8514 45.3471 35.4305 44.8913 35.1355 44.3047C34.8405 43.7147 34.693 43.0237 34.693 42.2315C34.693 41.446 34.8405 40.7566 35.1355 40.1634C35.4305 39.5668 35.8431 39.1011 36.3734 38.7663C36.907 38.4316 37.5318 38.2642 38.2477 38.2642C38.6918 38.2642 39.1177 38.3371 39.5254 38.483C39.9364 38.6255 40.3026 38.8509 40.6241 39.1591C40.9456 39.4673 41.1992 39.8651 41.3848 40.3523C41.5704 40.8395 41.6632 41.4245 41.6632 42.1072V42.6392H35.5332V41.4957H40.127C40.1236 41.1212 40.0441 40.7881 39.8883 40.4964C39.7359 40.2015 39.5204 39.9695 39.242 39.8004C38.9636 39.6314 38.6371 39.5469 38.2626 39.5469C37.8616 39.5469 37.5102 39.6446 37.2086 39.8402C36.9103 40.0324 36.6783 40.2876 36.5126 40.6058C36.3502 40.9207 36.2673 41.2621 36.264 41.63V42.5547C36.264 43.0452 36.3519 43.4645 36.5275 43.8125C36.7032 44.1572 36.9484 44.4207 37.2633 44.603C37.5782 44.782 37.9461 44.8714 38.367 44.8714C38.6454 44.8714 38.8973 44.8333 39.1227 44.7571C39.3481 44.6776 39.542 44.5599 39.7044 44.4041C39.8701 44.245 39.9977 44.0478 40.0872 43.8125L41.5787 44.0511C41.466 44.4721 41.2638 44.8416 40.9721 45.1598C40.6805 45.4747 40.3126 45.7199 39.8684 45.8956C39.4243 46.0679 38.9189 46.1541 38.3521 46.1541ZM42.6103 46L45.5286 42.0824L42.6401 38.3636H44.4796L46.7814 41.5057H47.2836V38.3636H48.8645V41.5057H49.3517L51.6536 38.3636H53.4881L50.6195 42.0824L53.5179 46H51.6486L49.3319 42.848H48.8645V46H47.2836V42.848H46.8162L44.4846 46H42.6103ZM56.5195 43.8075L59.7958 38.3636H61.4663V46H59.93V40.5511L56.6687 46H54.9783V38.3636H56.5195V43.8075Z" fill="#858589"/>
</svg>
