<svg width="63" height="52" viewBox="0 0 63 52" fill="none" xmlns="http://www.w3.org/2000/svg">
<path d="M37.5074 6C37.5074 9.31371 34.8179 12 31.5001 12C28.1824 12 25.4929 9.31371 25.4929 6C25.4929 2.68629 28.1824 0 31.5001 0C34.8179 0 37.5074 2.68629 37.5074 6Z" fill="#858589"/>
<path d="M31.5 14C36.7642 14 41.2979 17.1215 43.3481 21.6122C43.8841 22.7864 42.9281 24 41.6361 24H21.3639C20.0719 24 19.1159 22.7864 19.6519 21.6123C21.7021 17.1215 26.2359 14 31.5 14Z" fill="#858589"/>
<path d="M9.41433 35.8182V46H7.79359V37.1953H3.10538V46H1.48464V35.8182H9.41433ZM11.6043 48.8636V38.3636H13.1505V39.6065H13.2698C13.3593 39.4408 13.4852 39.2536 13.6476 39.0447C13.8134 38.8359 14.0404 38.6536 14.3287 38.4979C14.6204 38.3421 14.9983 38.2642 15.4623 38.2642C16.0688 38.2642 16.6124 38.4183 17.093 38.7266C17.5769 39.0348 17.958 39.4822 18.2364 40.0689C18.5148 40.6555 18.654 41.3648 18.654 42.1967C18.654 43.0253 18.5165 43.7346 18.2414 44.3246C17.9663 44.9112 17.5885 45.362 17.1079 45.6768C16.6306 45.9884 16.0854 46.1442 15.4722 46.1442C15.0148 46.1442 14.6403 46.0679 14.3486 45.9155C14.0603 45.763 13.8316 45.5824 13.6626 45.3736C13.4935 45.1648 13.3626 44.9759 13.2698 44.8068H13.1853V48.8636H11.6043ZM13.1555 42.1818C13.1555 42.7055 13.23 43.1645 13.3792 43.5589C13.5316 43.9534 13.752 44.2616 14.0404 44.4837C14.3287 44.7057 14.6784 44.8168 15.0894 44.8168C15.5203 44.8168 15.8799 44.7024 16.1682 44.4737C16.4599 44.2417 16.6787 43.9268 16.8245 43.5291C16.9736 43.1314 17.0482 42.6823 17.0482 42.1818C17.0482 41.6847 16.9753 41.2422 16.8295 40.8544C16.6836 40.4633 16.4649 40.1551 16.1732 39.9297C15.8849 39.7043 15.5236 39.5916 15.0894 39.5916C14.6718 39.5916 14.3188 39.6993 14.0305 39.9148C13.7454 40.1302 13.5283 40.4318 13.3792 40.8196C13.23 41.2074 13.1555 41.6615 13.1555 42.1818ZM23.5237 46.1541C22.7979 46.1541 22.1665 45.9901 21.6295 45.6619C21.0926 45.3338 20.675 44.8748 20.3767 44.2848C20.0817 43.6915 19.9342 43.0021 19.9342 42.2166C19.9342 41.4245 20.0817 40.7318 20.3767 40.1385C20.675 39.5452 21.0926 39.0845 21.6295 38.7564C22.1665 38.4283 22.7979 38.2642 23.5237 38.2642C24.2496 38.2642 24.8809 38.4283 25.4179 38.7564C25.9548 39.0845 26.3708 39.5452 26.6657 40.1385C26.964 40.7318 27.1132 41.4245 27.1132 42.2166C27.1132 43.0021 26.964 43.6915 26.6657 44.2848C26.3708 44.8748 25.9548 45.3338 25.4179 45.6619C24.8809 45.9901 24.2496 46.1541 23.5237 46.1541ZM23.5287 44.8466C23.9794 44.8466 24.3506 44.7273 24.6423 44.4886C24.9373 44.25 25.156 43.9318 25.2986 43.5341C25.4444 43.133 25.5173 42.6922 25.5173 42.2116C25.5173 41.7277 25.4444 41.2869 25.2986 40.8892C25.156 40.4882 24.9373 40.1667 24.6423 39.9247C24.3506 39.6828 23.9794 39.5618 23.5287 39.5618C23.0779 39.5618 22.705 39.6828 22.4101 39.9247C22.1151 40.1667 21.8947 40.4882 21.7488 40.8892C21.6063 41.2869 21.5351 41.7277 21.5351 42.2116C21.5351 42.6922 21.6063 43.133 21.7488 43.5341C21.8947 43.9318 22.1151 44.25 22.4101 44.4886C22.705 44.7273 23.0779 44.8466 23.5287 44.8466ZM32.0761 48.6001V35.8182H33.657V48.6001H32.0761ZM32.0761 46.1541C31.5292 46.1541 31.0304 46.0597 30.5796 45.8707C30.1322 45.6818 29.7444 45.4134 29.4163 45.0653C29.0915 44.7173 28.8396 44.303 28.6606 43.8224C28.4849 43.3385 28.3971 42.8033 28.3971 42.2166C28.3971 41.6267 28.4849 41.0897 28.6606 40.6058C28.8396 40.1186 29.0915 39.701 29.4163 39.353C29.7444 39.005 30.1322 38.7365 30.5796 38.5476C31.0304 38.3587 31.5292 38.2642 32.0761 38.2642H32.449V46.1541H32.0761ZM32.0761 44.8416H32.2899V39.5767H32.0761C31.7314 39.5767 31.4298 39.648 31.1713 39.7905C30.9127 39.9297 30.6973 40.1219 30.5249 40.3672C30.3526 40.6091 30.2233 40.8892 30.1372 41.2074C30.051 41.5223 30.0079 41.8587 30.0079 42.2166C30.0079 42.6906 30.0841 43.1264 30.2366 43.5241C30.3891 43.9219 30.6194 44.2417 30.9276 44.4837C31.2359 44.7223 31.6187 44.8416 32.0761 44.8416ZM33.657 46.1541H33.2842V38.2642H33.657C34.2039 38.2642 34.7027 38.3587 35.1535 38.5476C35.6043 38.7365 35.992 39.005 36.3169 39.353C36.6417 39.701 36.8919 40.1186 37.0676 40.6058C37.2465 41.0897 37.336 41.6267 37.336 42.2166C37.336 42.8033 37.2465 43.3385 37.0676 43.8224C36.8919 44.303 36.6417 44.7173 36.3169 45.0653C35.992 45.4134 35.6043 45.6818 35.1535 45.8707C34.7027 46.0597 34.2039 46.1541 33.657 46.1541ZM33.657 44.8416C34.0051 44.8416 34.3083 44.7737 34.5669 44.6378C34.8254 44.4986 35.0408 44.308 35.2132 44.0661C35.3855 43.8208 35.5148 43.5407 35.6009 43.2259C35.6871 42.9077 35.7302 42.5713 35.7302 42.2166C35.7302 41.7427 35.654 41.3068 35.5015 40.9091C35.349 40.508 35.1187 40.1866 34.8105 39.9446C34.5055 39.6993 34.1211 39.5767 33.657 39.5767H33.4433V44.8416H33.657ZM40.4893 43.8075L43.7655 38.3636H45.436V46H43.8998V40.5511L40.6384 46H38.9481V38.3636H40.4893V43.8075ZM46.8069 46L46.8019 44.6527H47.0704C47.2792 44.6527 47.4549 44.608 47.5974 44.5185C47.7399 44.429 47.8559 44.2765 47.9454 44.0611C48.0382 43.8423 48.1095 43.544 48.1592 43.1662C48.2089 42.7884 48.2437 42.3144 48.2636 41.7443L48.3978 38.3636H53.8019V46H52.2607V39.706H49.8545L49.7352 42.2614C49.7053 42.8911 49.6391 43.4413 49.5363 43.9119C49.4369 44.3826 49.291 44.772 49.0988 45.0803C48.9099 45.3885 48.6679 45.6188 48.373 45.7713C48.078 45.9238 47.7233 46 47.309 46H46.8069ZM56.8856 40.9489H59.1178C60.0624 40.9489 60.7916 41.1825 61.3053 41.6499C61.819 42.1139 62.0759 42.7171 62.0759 43.4595C62.0759 43.9467 61.9599 44.3826 61.7279 44.767C61.4992 45.1482 61.1644 45.4498 60.7236 45.6719C60.2828 45.8906 59.7475 46 59.1178 46H55.7371V38.3636H57.2783V44.6577H59.1178C59.5321 44.6577 59.8735 44.55 60.142 44.3345C60.4104 44.1191 60.5447 43.8407 60.5447 43.4993C60.5447 43.1446 60.4104 42.8546 60.142 42.6293C59.8735 42.4039 59.5321 42.2912 59.1178 42.2912H56.8856V40.9489Z" fill="#858589"/>
</svg>
