<svg width="63" height="52" viewBox="0 0 63 52" fill="none" xmlns="http://www.w3.org/2000/svg">
<rect x="19.5" width="11.0033" height="16.4125" rx="1" fill="#858589"/>
<rect x="19.5" y="18.4125" width="11.0033" height="5.57256" rx="1" fill="#858589"/>
<rect x="32.4966" width="11.0033" height="11.5862" rx="1" fill="#858589"/>
<rect x="32.4966" y="13.5863" width="11.0033" height="10.3988" rx="1" fill="#858589"/>
<path d="M9.85432 39.149H8.21369C8.15403 38.8276 8.04631 38.5425 7.89054 38.2939C7.73807 38.0454 7.5475 37.8365 7.3188 37.6675C7.09011 37.4952 6.83324 37.3659 6.54821 37.2797C6.26317 37.1902 5.96156 37.1455 5.64338 37.1455C5.06667 37.1455 4.55128 37.2897 4.09721 37.578C3.64645 37.8664 3.29016 38.2906 3.02832 38.8508C2.7698 39.4076 2.64054 40.0887 2.64054 40.8941C2.64054 41.7094 2.7698 42.3955 3.02832 42.9523C3.29016 43.5091 3.64645 43.9301 4.09721 44.2151C4.55128 44.5001 5.06502 44.6427 5.63841 44.6427C5.95327 44.6427 6.25157 44.6012 6.53329 44.5184C6.81833 44.4322 7.0752 44.3062 7.30389 44.1405C7.53258 43.9715 7.72482 43.7643 7.88059 43.5191C8.03968 43.2738 8.15072 42.9921 8.21369 42.6739L9.85432 42.6789C9.77808 43.176 9.62231 43.6351 9.38699 44.056C9.15166 44.4736 8.8484 44.8382 8.47718 45.1498C8.10929 45.4613 7.68504 45.7016 7.20446 45.8706C6.72387 46.0397 6.19522 46.1242 5.61852 46.1242C4.73358 46.1242 3.94475 45.9154 3.25204 45.4978C2.55933 45.0802 2.01412 44.4803 1.61639 43.6981C1.21866 42.9159 1.0198 41.9812 1.0198 40.8941C1.0198 39.8036 1.21866 38.869 1.61639 38.0901C2.01743 37.3079 2.56431 36.708 3.25701 36.2904C3.95304 35.8728 4.7402 35.664 5.61852 35.664C6.16871 35.664 6.68078 35.7419 7.15474 35.8976C7.6287 36.0534 8.05294 36.2821 8.42747 36.5837C8.80531 36.882 9.11686 37.2466 9.36213 37.6775C9.61071 38.1083 9.77477 38.5989 9.85432 39.149ZM14.8706 46.1391C14.115 46.1391 13.4637 45.9784 12.9168 45.6569C12.3699 45.332 11.949 44.8763 11.654 44.2897C11.359 43.6997 11.2116 43.0087 11.2116 42.2165C11.2116 41.431 11.359 40.7416 11.654 40.1483C11.949 39.5517 12.3617 39.0861 12.892 38.7513C13.4256 38.4166 14.0503 38.2492 14.7662 38.2492C15.2104 38.2492 15.6363 38.3221 16.0439 38.4679C16.4549 38.6105 16.8212 38.8358 17.1427 39.1441C17.4642 39.4523 17.7177 39.85 17.9033 40.3373C18.0889 40.8245 18.1817 41.4095 18.1817 42.0922V42.6242H12.0518V41.4807H16.6455C16.6422 41.1062 16.5626 40.7731 16.4069 40.4814C16.2544 40.1865 16.039 39.9544 15.7606 39.7854C15.4822 39.6164 15.1557 39.5319 14.7812 39.5319C14.3801 39.5319 14.0288 39.6296 13.7272 39.8252C13.4289 40.0174 13.1969 40.2726 13.0312 40.5908C12.8688 40.9057 12.7859 41.2471 12.7826 41.615V42.5397C12.7826 43.0302 12.8704 43.4495 13.0461 43.7975C13.2217 44.1422 13.467 44.4057 13.7819 44.588C14.0967 44.7669 14.4646 44.8564 14.8856 44.8564C15.164 44.8564 15.4159 44.8183 15.6412 44.7421C15.8666 44.6625 16.0605 44.5449 16.2229 44.3891C16.3886 44.23 16.5162 44.0328 16.6057 43.7975L18.0972 44.0361C17.9845 44.457 17.7823 44.8266 17.4907 45.1448C17.199 45.4597 16.8311 45.7049 16.387 45.8806C15.9429 46.0529 15.4374 46.1391 14.8706 46.1391ZM19.7938 48.8486V38.3486H21.3399V39.5915H21.4593C21.5487 39.4258 21.6747 39.2385 21.8371 39.0297C22.0028 38.8209 22.2298 38.6386 22.5182 38.4829C22.8099 38.3271 23.1877 38.2492 23.6517 38.2492C24.2583 38.2492 24.8018 38.4033 25.2824 38.7115C25.7663 39.0198 26.1475 39.4672 26.4259 40.0539C26.7043 40.6405 26.8435 41.3498 26.8435 42.1817C26.8435 43.0103 26.7059 43.7196 26.4308 44.3096C26.1557 44.8962 25.7779 45.347 25.2973 45.6618C24.82 45.9734 24.2748 46.1292 23.6617 46.1292C23.2043 46.1292 22.8298 46.0529 22.5381 45.9005C22.2497 45.748 22.021 45.5674 21.852 45.3586C21.683 45.1498 21.5521 44.9608 21.4593 44.7918H21.3747V48.8486H19.7938ZM21.3449 42.1668C21.3449 42.6905 21.4195 43.1495 21.5686 43.5439C21.7211 43.9383 21.9415 44.2466 22.2298 44.4687C22.5182 44.6907 22.8679 44.8017 23.2789 44.8017C23.7097 44.8017 24.0693 44.6874 24.3577 44.4587C24.6494 44.2267 24.8681 43.9118 25.0139 43.5141C25.1631 43.1164 25.2377 42.6673 25.2377 42.1668C25.2377 41.6696 25.1647 41.2272 25.0189 40.8394C24.8731 40.4483 24.6543 40.1401 24.3627 39.9147C24.0743 39.6893 23.713 39.5766 23.2789 39.5766C22.8612 39.5766 22.5083 39.6843 22.2199 39.8998C21.9349 40.1152 21.7178 40.4168 21.5686 40.8046C21.4195 41.1924 21.3449 41.6464 21.3449 42.1668ZM28.4617 45.985V38.3486H31.6436C32.5186 38.3486 33.2113 38.5309 33.7217 38.8955C34.2321 39.2601 34.4873 39.7589 34.4873 40.3919C34.4873 40.8328 34.3415 41.1857 34.0498 41.4509C33.7615 41.7127 33.377 41.8901 32.8964 41.9829C33.2544 42.0193 33.5792 42.1204 33.8708 42.2861C34.1625 42.4518 34.3945 42.6722 34.5669 42.9473C34.7392 43.2224 34.8254 43.5472 34.8254 43.9218C34.8254 44.3328 34.7193 44.6924 34.5072 45.0006C34.2951 45.3088 33.9868 45.5508 33.5825 45.7265C33.1814 45.8988 32.6975 45.985 32.1308 45.985H28.4617ZM29.9482 44.6874H32.1308C32.4854 44.6874 32.7638 44.6029 32.966 44.4338C33.1715 44.2648 33.2742 44.0328 33.2742 43.7378C33.2742 43.3964 33.1715 43.128 32.966 42.9324C32.7638 42.7369 32.4854 42.6391 32.1308 42.6391H29.9482V44.6874ZM29.9482 41.5255H31.6634C31.9319 41.5255 32.1623 41.4874 32.3545 41.4111C32.55 41.3349 32.6992 41.2255 32.8019 41.083C32.9047 40.9372 32.9561 40.7665 32.9561 40.5709C32.9561 40.2859 32.8384 40.0638 32.6031 39.9047C32.3711 39.7423 32.0512 39.6611 31.6436 39.6611H29.9482V41.5255ZM37.9463 43.7925L41.2226 38.3486H42.893V45.985H41.3568V40.5361L38.0954 45.985H36.4051V38.3486H37.9463V43.7925ZM48.0921 46.1391C47.3496 46.1391 46.71 45.9717 46.173 45.637C45.6361 45.2989 45.2235 44.8349 44.9351 44.2449C44.6468 43.6517 44.5026 42.9705 44.5026 42.2016C44.5026 41.4227 44.6501 40.7366 44.945 40.1434C45.24 39.5501 45.6543 39.0861 46.1879 38.7513C46.7249 38.4166 47.3546 38.2492 48.0771 38.2492C48.6704 38.2492 49.1974 38.3586 49.6581 38.5773C50.1221 38.7928 50.495 39.0977 50.7767 39.4921C51.0584 39.8832 51.2242 40.3422 51.2739 40.8692H49.7426C49.6664 40.5079 49.4891 40.1997 49.2107 39.9445C48.9356 39.6893 48.566 39.5617 48.102 39.5617C47.7043 39.5617 47.3546 39.6678 47.053 39.8799C46.7514 40.0887 46.5177 40.3886 46.352 40.7797C46.1863 41.1675 46.1034 41.6299 46.1034 42.1668C46.1034 42.7104 46.1846 43.181 46.347 43.5787C46.5128 43.9731 46.7448 44.2781 47.0431 44.4935C47.3447 44.7089 47.6977 44.8167 48.102 44.8167C48.3804 44.8167 48.6323 44.7653 48.8577 44.6625C49.0831 44.5598 49.272 44.4106 49.4244 44.2151C49.5769 44.0195 49.683 43.7842 49.7426 43.5091H51.2739C51.2209 44.0195 51.0584 44.472 50.7867 44.8664C50.5182 45.2608 50.1553 45.5723 49.6979 45.801C49.2405 46.0264 48.7052 46.1391 48.0921 46.1391ZM53.9735 40.9338H56.2057C57.1503 40.9338 57.8795 41.1675 58.3932 41.6348C58.9069 42.0989 59.1638 42.7021 59.1638 43.4445C59.1638 43.9317 59.0478 44.3676 58.8158 44.752C58.5871 45.1332 58.2523 45.4348 57.8115 45.6569C57.3707 45.8756 56.8354 45.985 56.2057 45.985H52.825V38.3486H54.3662V44.6427H56.2057C56.62 44.6427 56.9614 44.5349 57.2298 44.3195C57.4983 44.1041 57.6325 43.8257 57.6325 43.4843C57.6325 43.1296 57.4983 42.8396 57.2298 42.6142C56.9614 42.3889 56.62 42.2762 56.2057 42.2762H53.9735V40.9338ZM60.2078 45.985V38.3486H61.7888V45.985H60.2078Z" fill="#858589"/>
</svg>
